<svg xmlns="http://www.w3.org/2000/svg" width="256" height="256" viewBox="0 0 100 100"><rect width="100" height="100" rx="20" fill="#678efe"></rect><path fill="#fff" d="M18.90 71.31L18.90 71.31L18.26 72.63Q18.26 74.05 22.24 75.34Q26.22 76.64 30.98 76.64Q35.74 76.64 41.46 75.22Q47.17 73.80 51.39 71.75Q55.62 69.70 58.37 67.46Q61.13 65.21 61.13 63.55L61.13 63.55Q61.13 61.45 56.25 59.64Q51.37 57.84 42.07 55.66Q32.76 53.49 28.44 50.17Q24.12 46.85 24.12 42.09Q24.12 37.33 27.54 32.98Q30.96 28.64 36.45 25.27Q41.94 21.90 48.44 19.26L48.44 19.26Q61.87 13.84 73.34 13.84L73.34 13.84Q77.73 13.84 81.10 14.62L81.10 14.62Q87.55 16.14 87.55 18.63Q87.55 21.12 87.11 22.02Q86.67 22.92 86.40 23.22Q86.13 23.51 85.72 23.80Q85.30 24.10 85.11 24.24L85.11 24.24Q82.96 26.05 73.34 26.49L73.34 26.49Q70.02 26.64 69.73 26.83Q69.43 27.03 69.21 27.03Q68.99 27.03 68.70 26.64Q68.41 26.25 68.41 25.37Q68.41 24.49 70.31 22.14L70.31 22.14Q64.36 22.49 57.59 24.88Q50.83 27.27 45.85 30.27Q40.87 33.28 37.55 36.18Q34.23 39.09 34.23 40.28Q34.23 41.48 34.96 42.26L34.96 42.26Q37.01 44.46 46.34 46.85L46.34 46.85Q56.01 49.34 59.23 50.85Q62.45 52.37 64.58 53.74Q66.70 55.10 67.97 56.52L67.97 56.52Q70.95 59.94 70.95 63.45Q70.95 66.97 69.07 70.04Q67.19 73.12 63.40 76.00Q59.62 78.88 54.49 81.13L54.49 81.13Q43.26 86.16 27.73 86.16L27.73 86.16Q16.41 86.16 13.28 80.15L13.28 80.15Q12.45 78.64 12.45 77.00Q12.45 75.37 13.21 74.05Q13.96 72.73 15.04 72.05L15.04 72.05Q17.14 70.73 18.02 70.73Q18.90 70.73 18.90 71.31Z"></path></svg>